<svg class="svg-canvas" viewBox="0 0 800 600" width="1600" height="1200" preserveAspectRatio="none" version="1.1" xmlns="http://www.w3.org/2000/svg" xmlns:xlink="http://www.w3.org/1999/xlink">
      <!--滤镜-->
      <defs></defs>
    
      <!-- 背景 -->
      <g id="background">
          <rect x="0" y="0" fill="rgb(41, 47, 79)" width="800" height="600"></rect>
          
        </g>
    
      <!--元素-->
      
              <g id="shape_oe6BoMpHHj" ref="shape_oe6BoMpHHj" key="shape_oe6BoMpHHj" mask="">
                <g transform="translate(160,188.27992415502473) rotate(0,88.3685339734194,98.498965557675) scale(1,1)" style="opacity: 1;mix-blend-mode: undefined;" filter="">
                  <!--普通元素-->
                  <svg version="1.1" id="图层_1" xmlns="http://www.w3.org/2000/svg" xmlns:xlink="http://www.w3.org/1999/xlink" x="0px" y="0px" width="176.7370679468388" height="196.99793111535" viewBox="0 0 170.1 189.6" enable-background="new 0 0 170.1 189.6" xml:space="preserve" class="style-removed" preserveAspectRatio="none" data-parent="shape_oe6BoMpHHj">
<path fill="#28C3DC" d="M90.5,182.8c-0.1-0.2-0.1-0.5-0.2-0.7c0-0.1-0.1-0.2-0.1-0.4c-0.1-0.2-0.2-0.4-0.3-0.6
	c-0.1-0.1-0.1-0.2-0.2-0.4c-0.1-0.2-0.3-0.4-0.5-0.6c-0.1-0.1-0.1-0.2-0.2-0.2c-0.1-0.1-4.4-4.4-7.4-10.1c1.1,0.1,2.3,0.2,3.5,0.2
	c1.9,0,3.8-0.1,5.6-0.2v-11.9v-35.6V111V90.7h32.8h11.3h23.8h11.3c0.1-1.9,0.2-3.7,0.2-5.6c0-21.3-7.9-40.7-20.8-55.6
	c-0.2-0.3-0.5-0.6-0.8-0.9C132.9,11,110.2,0,85,0C59.8,0,37.1,11,21.6,28.5c-0.3,0.3-0.5,0.5-0.7,0.8C7.9,44.3,0,63.8,0,85
	c0,46.8,29.4,83.8,82.9,104.2c0,0,0,0,0,0c0,0,0.1,0,0.1,0c0.2,0.1,0.4,0.1,0.6,0.2c0.1,0,0.2,0.1,0.3,0.1c0.4,0.1,0.7,0.1,1.1,0.1
	c0,0,0.1,0,0.1,0c0.5,0,0.9-0.1,1.3-0.2c0.1,0,0.3-0.1,0.4-0.1c0.4-0.2,0.9-0.3,1.3-0.6c0.1,0,0.1-0.1,0.2-0.1
	c0.2-0.2,0.5-0.4,0.7-0.6c0.1-0.1,0.1-0.2,0.2-0.3c0.1-0.1,0.2-0.2,0.3-0.4c0.3-0.4,0.6-0.8,0.7-1.3c0,0,0,0,0,0
	c0.1-0.2,0.1-0.5,0.2-0.7c0-0.1,0.1-0.2,0.1-0.3c0.1-0.3,0.1-0.6,0.1-0.8c0-0.1,0-0.2,0-0.2c0-0.3,0-0.5-0.1-0.8
	C90.6,183,90.6,182.9,90.5,182.8z M158.5,79.4h-23.8c-0.4-12-2.3-23.3-5.3-33.4c4.7-1.8,9.3-3.9,13.7-6.2
	C151.9,50.9,157.4,64.5,158.5,79.4z M135.3,31.2c-3.1,1.6-6.4,2.9-9.6,4.2c-2.7-6.5-5.9-12.2-9.5-17.1
	C123.3,21.5,129.7,25.9,135.3,31.2z M90.7,12.1c9.6,2.8,18.2,12.8,24.2,26.8c-7.9,2.1-16,3.4-24.2,3.8V12.1z M90.7,54.1
	c9.5-0.4,18.9-1.9,28-4.5c2.7,9,4.3,19.1,4.8,29.8H90.7V54.1z M53.9,18.2c-3.6,4.9-6.8,10.7-9.5,17.1c-3.3-1.3-6.5-2.6-9.6-4.2
	C40.4,25.9,46.8,21.5,53.9,18.2z M26.9,39.8c4.4,2.4,9,4.4,13.7,6.2c-3,10.1-4.8,21.3-5.3,33.4H11.5C12.7,64.5,18.2,50.9,26.9,39.8z
	 M11.5,90.7h23.8c0.4,10.3,1.8,20,4,28.8c-5.9,2.3-11.6,5.1-17.1,8.3C16.3,117.3,12.3,105,11.5,90.7z M28.4,137.4
	c4.6-2.7,9.4-5,14.3-7c5.8,15.9,14.6,28.2,25.2,34.6c0.4,2,1.1,4,1.8,5.9C55.4,163.6,39.8,152.7,28.4,137.4z M79.4,157.9
	c-10.6-3.1-19.9-14.9-25.9-31.3c8.4-2.4,17.1-3.9,25.9-4.3V157.9z M79.4,111c-9.9,0.4-19.8,2.1-29.2,4.8c-1.9-7.8-3.2-16.3-3.5-25.2
	h32.8V111z M79.4,79.4H46.6c0.4-10.7,2.1-20.8,4.8-29.8c9.1,2.5,18.5,4,28,4.5V79.4z M79.4,42.8c-8.2-0.4-16.3-1.7-24.2-3.8
	c6-14.1,14.6-24,24.2-26.8V42.8z" stroke-width="0"></path>
</svg>
                </g>
              </g>
              <g id="shape_6pevqJSZMj" ref="shape_6pevqJSZMj" key="shape_6pevqJSZMj" mask="">
                <g transform="translate(-96.15780641362556,-93.31960895109961) rotate(0,548.8120563145503,433.25299550577506) scale(1,1)" style="opacity: 1;mix-blend-mode: undefined;" filter="">
                  <!--普通元素-->
                  <svg xmlns="http://www.w3.org/2000/svg" version="1.1" xmlns:xlink="http://www.w3.org/1999/xlink" width="1097.6241126291009" height="866.50599101155" viewBox="0 0 940.3398261439415 742.3398261439414" data-ligature="true" data-parent="shape_6pevqJSZMj"><g data-role="text" data-width="320.2916600000001" data-height="123" transform="translate(309.6699130719707, 309.6699130719707)"><path d="M41.49-72.25L69.05 0L56.87 0L49.96-18.79L18.68-18.79L11.77 0L0.10 0L27.77-72.25L41.49-72.25ZM22.30-28.70L46.24-28.70L34.27-61.31L22.30-28.70Z" transform="translate(0 98) " fill="rgb(255, 255, 255)" stroke="rgb(255, 255, 255)" stroke-width="0.172" data-glyph-w="69.15740000000001" data-glyph-h="123.14146000000001" data-glyph-ascender="98.26544000000001" data-glyph-descender="-24.87602" data-kerning="0"></path><path d="M55.43 0L44.49 0L44.49-8.26Q41.80-3.72 37.52-1.29Q33.24 1.14 27.66 1.14L27.66 1.14Q22.91 1.14 18.84-0.62Q14.76-2.37 11.82-5.57Q8.88-8.77 7.23-13.37Q5.57-17.96 5.57-23.53L5.57-23.53L5.57-31.07Q5.57-36.64 7.23-41.24Q8.88-45.83 11.82-49.08Q14.76-52.33 18.84-54.09Q22.91-55.84 27.66-55.84L27.66-55.84Q33.13-55.84 37.42-53.47Q41.70-51.09 44.49-46.76L44.49-46.76L44.49-76.07L55.43-76.07L55.43 0ZM44.49-24.36L44.49-30.24Q44.49-37.57 40.72-41.91Q36.95-46.24 30.45-46.24L30.45-46.24Q23.84-46.24 20.13-41.91Q16.41-37.57 16.41-30.24L16.41-30.24L16.41-24.36Q16.41-17.03 20.13-12.75Q23.84-8.46 30.45-8.46L30.45-8.46Q36.95-8.46 40.72-12.75Q44.49-17.03 44.49-24.36L44.49-24.36Z" transform="translate(69.15740000000001 98) " fill="rgb(255, 255, 255)" stroke="rgb(255, 255, 255)" stroke-width="0.172" data-glyph-w="63.48030000000001" data-glyph-h="123.14146000000001" data-glyph-ascender="98.26544000000001" data-glyph-descender="-24.87602" data-kerning="0"></path><path d="M19.10-32.72L19.10 0L8.15 0L8.15-54.60L19.10-54.60L19.10-44.90Q21.37-49.96 25.65-52.85Q29.93-55.74 35.20-55.74L35.20-55.74Q41.70-55.74 46.29-52.23Q50.89-48.72 52.75-42.94L52.75-42.94Q54.71-48.82 59.25-52.28Q63.79-55.74 69.98-55.74L69.98-55.74Q74.22-55.74 77.72-54.19Q81.23-52.64 83.71-49.91Q86.19-47.17 87.53-43.46Q88.87-39.74 88.87-35.51L88.87-35.51L88.87 0L77.93 0L77.93-33.03Q77.93-35.82 77.05-38.14Q76.18-40.46 74.63-42.22Q73.08-43.97 70.91-44.95Q68.74-45.93 66.16-45.93L66.16-45.93Q63.48-45.93 61.26-44.95Q59.04-43.97 57.39-42.17Q55.74-40.36 54.86-37.93Q53.98-35.51 53.98-32.72L53.98-32.72L53.98 0L43.04 0L43.04-33.03Q43.04-38.60 39.84-42.27Q36.64-45.93 31.38-45.93L31.38-45.93Q25.91-45.93 22.50-42.17Q19.10-38.40 19.10-32.72L19.10-32.72Z" transform="translate(132.63770000000002 98) " fill="rgb(255, 255, 255)" stroke="rgb(255, 255, 255)" stroke-width="0.172" data-glyph-w="97.02680000000001" data-glyph-h="123.14146000000001" data-glyph-ascender="98.26544000000001" data-glyph-descender="-24.87602" data-kerning="0"></path><path d="M13.63-63.58L13.63-63.58Q10.94-63.58 8.98-65.54Q7.02-67.51 7.02-70.19L7.02-70.19Q7.02-72.98 8.98-74.89Q10.94-76.80 13.63-76.80L13.63-76.80Q16.31-76.80 18.27-74.89Q20.23-72.98 20.23-70.19L20.23-70.19Q20.23-67.51 18.27-65.54Q16.31-63.58 13.63-63.58ZM19.10-54.60L19.10 0L8.15 0L8.15-54.60L19.10-54.60Z" transform="translate(229.66450000000003 98) " fill="rgb(255, 255, 255)" stroke="rgb(255, 255, 255)" stroke-width="0.172" data-glyph-w="27.25008" data-glyph-h="123.14146000000001" data-glyph-ascender="98.26544000000001" data-glyph-descender="-24.87602" data-kerning="0"></path><path d="M55.22-35.61L55.22 0L44.28 0L44.28-33.24Q44.28-35.92 43.40-38.24Q42.53-40.57 40.93-42.27Q39.33-43.97 37.06-44.95Q34.79-45.93 32.00-45.93L32.00-45.93Q26.32-45.93 22.71-42.22Q19.10-38.50 19.10-32.82L19.10-32.82L19.10 0L8.15 0L8.15-54.60L19.10-54.60L19.10-44.90Q21.47-49.96 25.91-52.85Q30.35-55.74 35.92-55.74L35.92-55.74Q40.26-55.74 43.82-54.19Q47.38-52.64 49.91-49.91Q52.44-47.17 53.83-43.51Q55.22-39.84 55.22-35.61L55.22-35.61Z" transform="translate(256.91458000000006 98) " fill="rgb(255, 255, 255)" stroke="rgb(255, 255, 255)" stroke-width="0.172" data-glyph-w="63.37708000000001" data-glyph-h="123.14146000000001" data-glyph-ascender="98.26544000000001" data-glyph-descender="-24.87602" data-kerning="0"></path></g></svg>
                </g>
              </g>
    </svg>