<svg xmlns="http://www.w3.org/2000/svg" xmlns:xlink="http://www.w3.org/1999/xlink" version="1.1" preserveAspectRatio="none" viewBox="0 0 800 600" width="1600" height="1200" style="background:#1d9fb4;">
      <path transform="translate(0, 0)" fill="#ffffff" fill-rule="evenodd" d="M253.19433917536128,188.41274401621595L258.00421411130765,188.80673906671367L262.7392066503263,189.45521250676782L267.3923155927047,190.35146753665313L271.95653973873016,191.48880735664432L276.42487788869005,192.860535167016L280.7903288428717,194.459954168043L285.04589140156247,196.28036756L289.1845643650497,198.3150785431617L293.1993465336209,200.55739031780274L297.08323670756323,203.0006060841979L300.82923368716405,205.63802904262187L304.43033627271086,208.46296239334936L307.87954326449085,211.46870933665508L311.1698534627915,214.6485730728137L314.2942656679,217.99585680209998L315.1254805671,218.93097356379997L319.9023281043826,224.95038185007164L324.1568252631047,231.37646851966088L327.853661644715,238.17757597386657L330.9575268506625,245.32204661398745L333.4331104823959,252.7782228413224L335.245102141364,260.51444705717023L336.3581914290158,268.49906166282983L336.7370679468,276.70040905959996L336.529264222,282.5189133542L254.23898919920003,282.5189133542L254.23898919920003,364.70528651459995L248.42048490460004,364.91309023939993L244.78391972050005,364.70528651459995L247.2856817511735,368.8288916787312L248.55908836558228,370.6009054726828L249.75822138303755,372.134269676425L250.81611280628812,373.3948914913578L251.66579463808284,374.3486781188812L252.24029888117056,374.96153676039523L252.47265753830004,375.19937461729995L252.68046126310003,375.40717834209994L253.19997057510002,376.03058951649996L253.4077742999,376.44619696609993L253.7194798872,377.06960814049995L253.8233817496,377.48521559019997L254.0311854744,378.212528627L254.03118547439993,378.6281360766001L254.13508733679993,379.4593509758001L254.13508733679993,379.66715470060007L254.03118547439993,380.49836959980007L253.92728361199994,380.81007518700005L253.71947988719995,381.53738822390005L253.43374976551243,382.2517135279L252.99216685029995,382.8881124351L252.68046126309994,383.3037198847L252.47265753829996,383.6154254719L251.74534450149994,384.2388366463L251.53754077669996,384.3427385087L250.18681656549995,384.9661496831L249.77120911589995,385.0700515455L248.42048490459996,385.2778552704L248.31658304219997,385.2778552704L247.17366255579998,385.1739534079L246.86195696859997,385.0700515455L246.23854579419998,384.8622478207L246.13464393179999,384.8622478207L236.0067743807727,380.687604925363L226.47385460532854,376.11906844618966L217.54395120513652,371.1669879827555L209.22513077986565,365.84171313463594L201.52545992918502,360.1535935014064L194.45300525276366,354.1129786826424L188.01583335027064,347.7302182779193L182.222010821375,341.01566188681255L177.07960426574576,333.97965910889764L172.59668028305197,326.63255954374984L168.78130547296266,318.9847127909448L165.6415464351469,311.0464684500579L163.18546976927368,302.82817612066447L161.4211420750121,294.34018540234007L160.3566299520312,285.59284589466006L160,276.5965071972L160.3790794511092,268.4247880659127L161.49358927203593,260.45275532642654L163.3094366641791,252.71450177734278L165.7925288289375,245.2441202172625L168.90877296770995,238.0757034447869L172.6240762818953,231.2433442585172L176.90434597289237,224.78113545705452L181.7154892421,218.723169839L182.442802279,217.8919549397L185.54892511819293,214.56296057632935L188.82322895048398,211.3991032061801L192.25856037616666,208.40723182897125L195.84776599553436,205.59419544442187L199.5836924088806,202.96684305225102L203.45918621649884,200.5320236521777L207.46709401868247,198.296586243921L211.600262415725,196.2673798272L215.85153800791988,194.45125340173365L220.21376739556055,192.85505596724101L224.67979717894048,191.4856365234412L229.24247395835312,190.34984407005314L233.89464433409194,189.45452760679595L238.62915490645042,188.80653613338868L243.43885227572196,188.41271864955033L248.3165830422,188.279924155ZM410.7347920505,382.5384948327L397.9649321995,382.5384948327L397.9649321995,372.8969004662L396.27896635651877,375.39265518230627L394.36100694447504,377.580544218725L392.2110539633688,379.46056757545625L389.8291074132,381.0327252525L387.23632394026254,382.27367198505L384.45386019075,383.1600625083L381.4817161646625,383.69189682225L378.319891862,383.8691749269L375.59725035352494,383.7407759704437L372.9738262205,383.35557910107497L370.44961946292494,382.71358431879366L368.0246300808,381.8147916236L365.72658057608754,380.6876530569812L363.59486608315,379.348948028025L361.6294866019875,377.79867653673125L359.8304421326,376.0368385831L358.2086757678187,374.06708186480006L356.77513060057504,371.89305407940003L355.52980663086873,369.51475522690004L354.4727038587,366.9321853073L353.6249789302999,364.18182129687506L353.01946112429994,361.28846753950006L352.65615044069995,358.25212403517503L352.5350468795,355.0727907839L352.5350468795,346.2716259506L352.65615044069995,343.0915631597625L353.01946112429994,340.05303103685L353.6249789302999,337.15602958186247L354.4727038587,334.4005587948L355.52980663086873,331.81944795424374L356.77513060057504,329.433853706475L358.2086757678187,327.24377605149374L359.8304421326,325.2492149893L361.6294866019875,323.4611136127688L363.59486608315,321.89041501477504L365.72658057608754,320.5371191953188L368.0246300808,319.4012261544L370.44961946292494,318.507540235925L372.9738262205,317.8691931513L375.59725035352494,317.486184900525L378.319891862,317.3585154836L381.42627116076255,317.53141635109375L384.36047913155,318.05011895357495L387.1225157743625,318.9146232910437L389.7123810892,320.1249293635L392.10162303458117,321.65623282713744L394.273462201425,323.47205670564995L396.22789858973124,325.5724009990374L397.9649321995,327.9572657073L397.9649321995,293.7447801284L410.7347920505,293.7447801284ZM609.5995977299189,317.58832043402504L611.9618467128751,317.9275563133L614.2102875298688,318.492949445425L616.3449201809,319.2844998304L618.3475061778875,320.27521450578126L620.1998070326499,321.438100509125L621.9018227451875,322.7731578404313L623.4535533155,324.2803864997L624.8469738088562,325.94665477552496L626.074059290425,327.747158324L627.1348097602063,329.681897145125L628.0292252182,331.7508712389L628.7390671763312,333.9336534986125L629.246097146425,336.19814418515L629.5503151284812,338.5443432985125L629.6517211225,340.9722508387L629.6517211225,382.5384948327L616.8818612715,382.5384948327L616.8818612715,343.7386647187L616.6250633586001,340.71545292584995L615.8546696199,337.9023485163L614.6261250593,335.3664691263L612.9715294159,333.1982776571L610.9083916383249,331.42403753150006L608.4542206752,330.0700121725L605.652788898025,329.2120736908L602.5478686783,328.9260941969L599.3838557570376,329.1967533607875L596.5218721992501,330.00873085245L593.9619180049376,331.3620266718875L591.7039931741,333.2566408191L589.8604467936375,335.5707401933625L588.54362795045,338.17081906155L587.7535366445376,341.0568774236625L587.4901728759,344.2289152797L587.4901728759,382.5384948327L574.7086403925,382.5384948327L574.7086403925,318.8059219018L587.4901728759,318.8059219018L587.4901728759,330.1283753346L589.0243944976376,327.3335094131437L590.86064548285,324.855263645675L592.9989258315376,322.6936380321938L595.4392355437,320.8486325727L598.1129979039563,319.3727741129688L600.9516361969249,318.31858949887504L603.9551504226063,317.6860787304188L607.123540581,317.4752418076ZM555.6821561915,382.5384948327L542.9006237081,382.5384948327L542.9006237081,318.8059219018L555.6821561915,318.8059219018ZM504.237305030075,317.58832043402504L506.54994532530003,317.9275563133L508.754613770775,318.492949445425L510.8513103665,319.2844998304L512.8247147824437,320.27521450578126L514.647834056175,321.438100509125L516.3206681876937,322.7731578404313L517.843217177,324.2803864997L519.2074560893562,325.95030247315L520.4053599899249,327.7617491145L521.4369288787062,329.71472642375L522.3021627557,331.8092344009L522.9864708304563,334.01755054399376L523.475262312425,336.30027971867503L523.7685372016063,338.65742192494383L523.866295498,341.0889771628L523.866295498,382.5384948327L511.096435647,382.5384948327L511.096435647,343.9837899992L510.83963773410005,340.864278988975L510.0692439954,338.0190748403L508.85529022525,335.47444097605L507.2444669534,333.2566408191L505.254283128325,331.438628322L502.9022476987,330.0700121725L500.24964198472503,329.2120736908L497.3577473064,328.9260941969L494.36371709455,329.2120736908L491.638157428,330.0700121725L489.213168045875,331.45321911250005L487.1208486873,333.3150039811L485.41956251427496,335.608676248675L484.1676726888,338.2642001208L483.39727895010003,341.19694901255L483.1404810372,344.3456416038L483.1404810372,382.5384948327L470.3706211862,382.5384948327L470.3706211862,343.9837899992L470.1371685381,340.8715743842563L469.43681059380003,338.036583788925L468.2695473533,335.4788182132063L466.6353788166,333.1982776571L464.61747248963127,331.3291973932626L462.298995878225,329.99414006195L459.67994898238123,329.1931056631625L456.7603318021,328.9260941969L453.71815198156247,329.20040105841247L450.97654244545004,330.02332164295L448.53550319376257,331.39485595051246L446.3950342265,333.3150039811L444.6587301562562,335.6546372387812L443.418512963225,338.272954595125L442.6743826474063,341.1699560501312L442.4263392088,344.3456416038L442.4263392088,382.5384948327L429.6448067254,382.5384948327L429.6448067254,318.8059219018L442.4263392088,318.8059219018L442.4263392088,330.1283753346L443.8978204313375,327.3335094131437L445.66257654304997,324.855263645675L447.7206075439375,322.6936380321938L450.071913434,320.8486325727L452.64208118169375,319.3727741129688L455.356697755375,318.31858949887504L458.21576315504376,317.6860787304188L461.2192773807,317.4752418076L464.87354086300627,317.73131018098746L468.249120246625,318.49951530115L471.34601553155625,319.77985716808746L474.1642267178,321.5723357818L476.6490383410125,323.7864882410937L478.73406230435,326.331851644875L480.41929860781255,329.2084259931437L481.7047472514,332.4162112859L483.036886424625,329.161005923975L484.7454679929,326.2588976923L486.83049195622505,323.70988659087504L489.2919583146,321.5139726197L492.0620198921812,319.74702788940624L495.07282951312504,318.484924510625L498.3243871774313,317.7276624833563L501.8166928851,317.4752418076ZM345.9080265579,382.5384948327L331.6907602887,382.5384948327L323.6249712969,360.6056185438L287.1129771343,360.6056185438L279.0471881425,382.5384948327L265.425226126,382.5384948327L297.7233999904,298.2037257071L313.73825165,298.2037257071ZM377.9303177554937,328.8801332067562L374.70721213267495,329.827805050125L371.9072394345437,331.40725812240623L369.5303996611,333.6184924236L367.63067873716875,336.3695859735625L366.273735220075,339.55694415965L365.45956910981874,343.1805669818625L365.1881804064,347.2404544402L365.1881804064,354.1039622943L365.45956910981874,358.1594725154812L366.273735220075,361.76996362622504L367.63067873716875,364.9354356265312L369.5303996611,367.6558885164L371.9072394345437,369.84669571089375L374.70721213267495,371.411557992675L377.9303177554937,372.35047536174375L381.576556303,372.6634478181L385.17099754418746,372.35047536174375L388.36711020455,371.411557992675L391.16489428408744,369.84669571089375L393.5643497828,367.6558885164L395.4896045901062,364.9354356265312L396.864786595325,361.76996362622504L397.68989579845623,358.1594725154812L397.9649321995,354.1039622943L397.9649321995,347.2404544402L397.68989579845623,343.1805669818625L396.864786595325,339.55694415965L395.4896045901062,336.3695859735625L393.5643497828,333.6184924236L391.16489428408744,331.40725812240623L388.36711020455,329.827805050125L385.17099754418746,328.8801332067562L381.576556303,328.5642425923ZM196.8202224888625,327.1317755233L189.5081289223,331.0410830962L194.14332899874196,336.7897783269453L199.12067466114217,342.1196191748812L204.3731979122494,347.0403464396078L209.8339307548125,351.561700920725L215.43590519158028,355.6934234178328L221.11215322530154,359.44525473053125L226.7957068587252,362.8269356584203L232.4195980946,365.8482070011L231.36759173779998,362.8220652586L230.5493645714,359.7179971193L226.509367937192,356.94166629989536L222.65931689519218,353.6186331029313L219.0138226447994,349.77690232725786L215.58749638541252,345.444478771725L212.39494931643029,340.6493672351828L209.45079263725157,335.41957251648125L206.76963754727518,329.7830994144703L204.3660952459,323.767952728ZM235.66328436149217,315.8746581186016L228.8869347729125,316.80652794701246L222.18851158115157,318.12802975944214L215.5874963854,319.8196819567L218.08195281637518,325.97728783732003L220.87350363515156,331.63689533837965L223.93779684273028,336.7485828619275L227.25048044011248,341.26242881001247L230.7872024282994,345.12851158468334L234.52361080829218,348.29690958798903L238.43535358109196,350.71770122197825L240.44936536510738,351.6321441511195L242.4980787477,352.3409648887L242.4980787477,315.3519018734ZM291.3384700649,349.0380398306L319.2827520423,349.0380398306L305.3106110536,310.9735855581ZM171.9487141763,282.5189133542L172.4136344238797,287.9936485961666L173.17443145931875,293.276003046039L174.2152764832672,298.3684119037139L175.520340696375,303.27331036908754L177.0737952992922,307.9931336420565L178.85981149266874,312.5303169225172L180.86256047715466,316.8872954103662L183.0662134534,321.0665043055L191.7939698951625,316.4039082302L196.27473771126716,314.33074138195934L200.8334319242,312.4426497261L199.2781509213422,305.41466281454836L198.05405710491252,298.06522951618746L197.1806320741016,290.4235722298078L196.6773574281,282.5189133542ZM208.522169742,282.41501149180004L208.9442710580156,289.26766401055L209.71704115965,295.93524133690005L210.80151684848437,302.38852107205L212.15873492609998,308.5982808172L219.5731068885094,306.6939544953844L227.13359084490003,305.20848255634996L234.79148279729066,304.17108739891563L242.4980787477,303.6109914219L242.6019806101,303.6109914219L242.6019806101,282.41501149180004ZM550.808832162425,293.03202001223127L552.2153843671999,293.45004616022504L553.5168828803249,294.14675640688125L554.7133277018,295.1221507522L555.7142559305375,296.3010866250812L556.42920466535,297.60842145442496L556.8581739062375,299.0441552402312L557.0011636532,300.6082879825L556.8581739062375,302.12062341845626L556.42920466535,303.52936424182496L555.7142559305375,304.83451045260625L554.7133277018,306.0360620508L553.5168828803249,307.03699027953746L552.2153843671999,307.75193901435L550.808832162425,308.1809082552375L549.297226266,308.3238980022L547.7805135928563,308.1809082552375L546.3703136904251,307.75193901435L545.0666265587063,307.03699027953746L543.8694521977,306.0360620508L542.8685239689623,304.83451045260625L542.1535752341499,303.52936424182496L541.7246059932625,302.12062341845626L541.5816162463,300.6082879825L541.7246059932625,299.0441552402312L542.1535752341499,297.60842145442496L542.8685239689623,296.3010866250812L543.8694521977,295.1221507522L545.0666265587063,294.14675640688125L546.3703136904251,293.45004616022504L547.7805135928563,293.03202001223127L549.297226266,292.8926779629ZM211.50123095308436,247.03480387710937L210.01575901405,254.63425103189996L208.97836385661563,262.5648853730906L208.4182678796,270.7780029027L242.4980787477,270.7780029027L242.4980787477,244.49083171479998L235.11779958387655,243.90638373879844L227.7959652176625,242.9323037787875L220.55205724826718,241.5685918347578L213.4055572749,239.8152479067ZM184.7178877856004,234.077105208817L181.8112737715531,238.7502538170422L179.2431525436105,243.6377000164744L177.026917701225,248.72483260771247L175.17596284384882,253.99704039135526L173.70368157093435,259.4397121680015L172.62346748193397,265.03823673825013L171.9487141763,270.7780029027L196.67735742809998,270.7780029027L197.31862673515937,261.527490215675L198.4566768218,252.64712791345002L200.08176688844063,244.15639759522503L202.1841561355,236.0747808602L194.9499889656625,233.0876023161L187.9496009863,229.6328653912ZM276.18501069853437,241.62703663235783L268.94110272915003,243.0102301755875L261.6192683629656,243.96482853639844L254.2389891992,244.4908317148L254.2389891992,270.7780029027L288.3188000672,270.7780029027L287.71487049199845,262.56488537307655L286.6823457343875,254.63425103186253L285.2212257943578,247.03480387706722L283.3315106719,239.81524790670002ZM301.68317711875,233.04863911773748L294.449009949,236.0747808602L296.5660103954157,244.17100879462498L298.21545246105,252.68609111185L299.35837294748444,261.571323813875L299.9558086563,270.7780029027L324.6844519081,270.7780029027L324.0437914010701,265.03823673825013L322.98792931107965,259.4397121680015L321.5302592375775,253.99704039135526L319.6841747800125,248.72483260771247L317.46306953783335,243.6377000164744L314.88033711048905,238.7502538170422L311.9493710974283,234.077105208817L308.6835650981,229.6328653912ZM238.809562632392,202.38683424271736L235.2379361122922,204.4740034903953L231.8026807865994,207.18214871258493L228.5232782545125,210.47595951073748L225.41921011523027,214.3201254863041L222.50995796795155,218.67933624073592L219.81500341187518,223.51828137548418L217.3538280462,228.801650492L223.54735312540782,230.2806285646578L229.8090638017875,231.4381602504875L236.12921927574843,232.26450474989844L242.4980787477,232.7499212633L242.4980787477,200.9559513681ZM254.2389891992,232.6460194009L260.60784867115,232.16060288749844L266.9280041451,231.3342583880875L273.18971482145,230.1767267022578L279.3832399006,228.6977486296L276.9220645349578,223.44421071185917L274.22710997890624,218.61926797653592L271.31785783164537,214.26188362202907L268.21378969237503,210.41102084673747L264.9343871602954,207.10564284905993L261.4991318346063,204.38471282739528L257.92750531450787,202.28719398014238L254.2389891992,200.8520495057ZM283.459764533275,211.26821121157656L286.01997136155006,215.5541630356625L288.404843797025,220.1518204469672L290.60464104010003,225.0611834455L295.6308936337625,222.99613393025004L300.5792198307,220.6973052246L296.0611122828078,216.74741098672501L291.2410399472875,213.17740793324998L286.12874362374845,210.016518462975L280.73396411180005,207.2939649747ZM210.60832432306563,209.971061398175L205.49602799955,213.15143246765L200.67595566403438,216.701953921925L196.15784811609998,220.5934033622L201.06721111465,222.89223206785005L206.1324269068,224.9572815831L208.33222414981716,220.0917521828094L210.71709658526248,215.4892243717L213.27730341352657,211.17892054859064L216.003103835,207.1900631123Z"></path></svg>